<svg xmlns="http://www.w3.org/2000/svg" version="1.1" xmlns:xlink="http://www.w3.org/1999/xlink" xmlns:svgjs="http://svgjs.dev/svgjs" width="2000" height="1247" viewBox="0 0 2000 1247"><g transform="matrix(1,0,0,1,-1.2121212121212466,0.504858299595071)"><svg viewBox="0 0 396 247" data-background-color="#ebefd8" preserveAspectRatio="xMidYMid meet" height="1247" width="2000" xmlns="http://www.w3.org/2000/svg" xmlns:xlink="http://www.w3.org/1999/xlink"><g id="tight-bounds" transform="matrix(1,0,0,1,0.2400000000000091,-0.09999999999999432)"><svg viewBox="0 0 395.52 247.2" height="247.2" width="395.52"><g><svg></svg></g><g><svg viewBox="0 0 395.52 247.2" height="247.2" width="395.52"><mask id="bd89be45-4add-467a-b77d-5476fbae5325"><rect width="395.52" height="247.2" fill="white"></rect><g transform="matrix(1,0,0,1,103.50364527192552,37.08)" id="clone"><svg viewBox="0 0 188.51270945614894 173.04" height="173.04" width="188.51270945614894"><g><svg viewBox="0 0 188.51270945614894 173.04" height="173.04" width="188.51270945614894"><g><svg viewBox="0 0 188.51270945614894 173.04" height="173.04" width="188.51270945614894"><g><svg viewBox="0 0 188.51270945614894 173.04" height="173.04" width="188.51270945614894"><g id="SvgjsG3072"><svg viewBox="0 0 188.51270945614894 173.04" height="173.04" width="188.51270945614894" id="SvgjsSvg3071"><g><svg viewBox="0 0 188.51270945614894 173.04" height="173.04" width="188.51270945614894"><g transform="matrix(1,0,0,1,0,0)"><svg width="188.51270945614894" viewBox="-0.75 -37.86 44.42 40.86" height="173.04" data-palette-color="#d52814"><path d="M16.92-3.13L16.92 0 2.25 0 2.25-34.86 16.92-34.86 16.92-31.74 5.64-31.74 5.64-19.14 16.16-19.14 16.16-16.02 5.64-16.02 5.64-3.13 16.92-3.13ZM23.46-10.25L23.46 0 20.04 0 20.04-34.86 26.17-34.86 28.49-20.8 29.9-3.25 30.83-3.25 32.22-20.8 34.57-34.86 40.67-34.86 40.67 0 37.25 0 37.25-10.25 37.84-31.74 36.79-31.74 34.35-10.06 32.57-0.12 28.15-0.12 26.39-10.06 23.92-31.74 22.9-31.74 23.46-10.25Z" opacity="1" transform="matrix(1,0,0,1,0,0)" fill="black" class="wordmark-text-0" id="SvgjsPath3070" stroke-width="5" stroke="black" stroke-linejoin="round"></path></svg></g></svg></g></svg></g></svg></g></svg></g></svg></g></svg></g></mask><g mask="url(#bd89be45-4add-467a-b77d-5476fbae5325)"><g><path d="M249.769 224.995v22.193h-104.018v-247.176h104.018v22.122h-79.981v89.341h74.592v22.123h-74.592v91.397z" fill="#d52814" fill-rule="nonzero" stroke="none" stroke-width="1" stroke-linecap="butt" stroke-linejoin="miter" stroke-miterlimit="10" stroke-dasharray="" stroke-dashoffset="0" font-family="none" font-weight="none" font-size="none" text-anchor="none" style="mix-blend-mode: normal" data-fill-palette-color="tertiary"></path></g></g><g transform="matrix(1,0,0,1,103.50364527192552,37.08)"><svg viewBox="0 0 188.51270945614894 173.04" height="173.04" width="188.51270945614894"><g><svg viewBox="0 0 188.51270945614894 173.04" height="173.04" width="188.51270945614894"><g><svg viewBox="0 0 188.51270945614894 173.04" height="173.04" width="188.51270945614894"><g><svg viewBox="0 0 188.51270945614894 173.04" height="173.04" width="188.51270945614894"><g id="textblocktransform"><svg viewBox="0 0 188.51270945614894 173.04" height="173.04" width="188.51270945614894" id="textblock"><g><svg viewBox="0 0 188.51270945614894 173.04" height="173.04" width="188.51270945614894"><g transform="matrix(1,0,0,1,0,0)"><svg width="188.51270945614894" viewBox="-0.75 -37.86 44.42 40.86" height="173.04" data-palette-color="#d52814"><path d="M16.92-3.13L16.92 0 2.25 0 2.25-34.86 16.92-34.86 16.92-31.74 5.64-31.74 5.64-19.14 16.16-19.14 16.16-16.02 5.64-16.02 5.64-3.13 16.92-3.13ZM23.46-10.25L23.46 0 20.04 0 20.04-34.86 26.17-34.86 28.49-20.8 29.9-3.25 30.83-3.25 32.22-20.8 34.57-34.86 40.67-34.86 40.67 0 37.25 0 37.25-10.25 37.84-31.74 36.79-31.74 34.35-10.06 32.57-0.12 28.15-0.12 26.39-10.06 23.92-31.74 22.9-31.74 23.46-10.25Z" opacity="1" transform="matrix(1,0,0,1,0,0)" fill="#d52814" class="wordmark-text-0" data-fill-palette-color="primary" id="text-0"></path></svg></g></svg></g></svg></g></svg></g></svg></g></svg></g></svg></g></svg></g><defs></defs></svg><rect width="395.52" height="247.2" fill="none" stroke="none" visibility="hidden"></rect></g></svg></g></svg>